<svg width="24" height="24" viewBox="0 0 24 24" fill="none" xmlns="http://www.w3.org/2000/svg">
<path d="M12.3561 21.968C7.91547 21.956 4.04625 19.1509 2.78406 14.967C1.72991 11.4611 2.41334 8.25666 4.78435 5.45625C6.2419 3.73534 8.1215 2.68052 10.3312 2.22912C11.5672 1.97703 12.8404 1.96661 14.0804 2.19845C14.2191 2.22378 14.2204 2.26112 14.1664 2.37314C13.5565 3.64266 12.9495 4.91395 12.3455 6.18703C12.3147 6.2689 12.2324 6.31962 12.1454 6.31038C9.53115 6.37722 7.29823 8.21557 6.73064 10.7684C6.12188 13.4801 7.58876 16.2852 10.1771 17.2793C12.2314 18.0681 14.143 17.754 15.882 16.4058C15.9706 16.3392 16.0073 16.3258 16.0707 16.4358C16.7374 17.6027 17.41 18.7673 18.0883 19.9297C18.1476 20.0317 18.1263 20.0777 18.0383 20.1391C16.7285 21.0657 15.2133 21.6606 13.623 21.8726C13.2027 21.9268 12.7798 21.9587 12.3561 21.968Z" fill="#67EF3E"/>
<path d="M19.2549 19.081C19.2002 19.0517 19.1849 18.9917 19.1569 18.943C18.3985 17.6317 17.6429 16.3191 16.8899 15.0051C16.8374 14.8947 16.7206 14.8299 16.5992 14.8437C15.0936 14.8484 13.5887 14.8437 12.0832 14.8437H11.8957C11.8945 14.7859 11.9155 14.7298 11.9545 14.687C12.719 13.3588 13.484 12.0307 14.2495 10.7025C14.2911 10.6124 14.3855 10.5588 14.4842 10.5691C16.0253 10.5731 17.566 10.5731 19.1062 10.5691C19.2044 10.5588 19.2981 10.6126 19.3389 10.7025C20.1074 12.0418 20.8796 13.3793 21.6552 14.715C21.7083 14.7852 21.711 14.8814 21.6619 14.9544C20.8827 16.2999 20.1063 17.6441 19.3329 18.987C19.3122 19.021 19.3029 19.0677 19.2549 19.081Z" fill="#67EF3E"/>
<path d="M16.009 4.97629C15.733 4.70025 15.4756 4.43621 15.2089 4.17618C15.1262 4.09616 15.1843 4.03682 15.2196 3.97615C15.5248 3.44472 16.0217 3.05015 16.6085 2.87332C17.3275 2.63604 18.1133 2.71353 18.7721 3.08668C19.9723 3.73544 19.8649 5.24033 19.1722 5.92043C18.9095 6.17334 18.612 6.38732 18.2887 6.55585C17.9553 6.73321 17.6219 6.90057 17.2952 7.08927C17.0239 7.24462 16.8125 7.45932 16.7145 7.77003C16.6745 7.89538 16.6985 7.92805 16.8325 7.92672C17.714 7.92139 18.5961 7.92672 19.4782 7.92139C19.6116 7.92139 19.6616 7.94672 19.6562 8.09208C19.6442 8.40346 19.6489 8.7155 19.6562 9.02555C19.6562 9.12423 19.6289 9.1589 19.5275 9.1589C18.11 9.15623 16.6929 9.15623 15.2763 9.1589C15.2096 9.1589 15.1476 9.1589 15.1469 9.06222C15.1469 8.08074 15.3283 7.16661 16.0964 6.46651C16.4623 6.1425 16.873 5.87302 17.3159 5.66639C17.5586 5.54771 17.804 5.43436 18.016 5.26233C18.2014 5.11164 18.3294 4.92895 18.3427 4.68225C18.3627 4.29619 18.0573 4.00948 17.5959 3.97948C16.9325 3.93214 16.4538 4.23085 16.1191 4.7856C16.0857 4.84027 16.055 4.89628 16.009 4.97629Z" fill="#67EF3E"/>
<path d="M19.3894 20.4786V20.1579H19.2747V20.0912H19.5821V20.1579H19.466V20.4786H19.3894ZM19.6314 20.4786V20.0925H19.7481L19.8148 20.3559L19.8814 20.0925H19.9988V20.4786H19.9328V20.1745L19.8561 20.4786H19.7808L19.7048 20.1745V20.4786H19.6314Z" fill="#67EF3E"/>
</svg>
